<mxfile host="65bd71144e">
    <diagram id="RA-jwU2BD-ohs3YR12GW" name="Page-1">
        <mxGraphModel dx="1437" dy="503" grid="1" gridSize="10" guides="1" tooltips="1" connect="1" arrows="1" fold="1" page="1" pageScale="1" pageWidth="827" pageHeight="1169" math="0" shadow="1">
            <root>
                <mxCell id="0"/>
                <mxCell id="1" parent="0"/>
                <mxCell id="37" value="" style="shape=parallelogram;perimeter=parallelogramPerimeter;whiteSpace=wrap;html=1;fixedSize=1;strokeColor=#1A1A1A;fillColor=#E6E6E6;opacity=25;shadow=1;rounded=1;gradientColor=#ffffff;" parent="1" vertex="1">
                    <mxGeometry x="20" y="280" width="780" height="150" as="geometry"/>
                </mxCell>
                <mxCell id="45" value="" style="shape=parallelogram;perimeter=parallelogramPerimeter;whiteSpace=wrap;html=1;fixedSize=1;strokeColor=#1A1A1A;fillColor=#E6E6E6;opacity=25;gradientColor=#ffffff;shadow=1;rounded=1;" vertex="1" parent="1">
                    <mxGeometry x="6" y="250" width="780" height="150" as="geometry"/>
                </mxCell>
                <mxCell id="44" value="" style="shape=parallelogram;perimeter=parallelogramPerimeter;whiteSpace=wrap;html=1;fixedSize=1;strokeColor=#1A1A1A;fillColor=#E6E6E6;opacity=25;rounded=1;shadow=1;gradientColor=#ffffff;" vertex="1" parent="1">
                    <mxGeometry x="602" y="230" width="176" height="90" as="geometry"/>
                </mxCell>
                <mxCell id="4" value="Audio&lt;br&gt;Interface" style="rounded=1;whiteSpace=wrap;html=1;strokeColor=#1A1A1A;" parent="1" vertex="1">
                    <mxGeometry x="640" y="260" width="100" height="40" as="geometry"/>
                </mxCell>
                <mxCell id="42" value="AudioPatch" style="rounded=1;whiteSpace=wrap;html=1;strokeColor=#1A1A1A;" vertex="1" parent="1">
                    <mxGeometry x="740" y="270" width="60" height="20" as="geometry"/>
                </mxCell>
                <mxCell id="38" value="HDD" style="rounded=1;whiteSpace=wrap;html=1;strokeColor=#1A1A1A;" parent="1" vertex="1">
                    <mxGeometry x="756" y="210" width="34" height="40" as="geometry"/>
                </mxCell>
                <mxCell id="2" value="RaspPi&lt;br&gt;(Downloads)" style="rounded=1;whiteSpace=wrap;html=1;strokeColor=#1A1A1A;" parent="1" vertex="1">
                    <mxGeometry x="702" y="220" width="48" height="40" as="geometry"/>
                </mxCell>
                <mxCell id="3" value="RaspPi&lt;br&gt;(Server)" style="rounded=1;whiteSpace=wrap;html=1;strokeColor=#1A1A1A;" parent="1" vertex="1">
                    <mxGeometry x="640" y="220" width="52.5" height="40" as="geometry"/>
                </mxCell>
                <mxCell id="43" value="" style="shape=parallelogram;perimeter=parallelogramPerimeter;whiteSpace=wrap;html=1;fixedSize=1;strokeColor=#1A1A1A;fillColor=#E6E6E6;opacity=25;rounded=1;shadow=1;gradientColor=#ffffff;" vertex="1" parent="1">
                    <mxGeometry x="20" y="230" width="176" height="90" as="geometry"/>
                </mxCell>
                <mxCell id="12" value="macmini" style="rounded=1;whiteSpace=wrap;html=1;strokeColor=#1A1A1A;" parent="1" vertex="1">
                    <mxGeometry x="48" y="230" width="120" height="60" as="geometry"/>
                </mxCell>
                <mxCell id="48" value="" style="shape=parallelogram;perimeter=parallelogramPerimeter;whiteSpace=wrap;html=1;fixedSize=1;strokeColor=#1A1A1A;fillColor=#E6E6E6;opacity=25;rounded=1;shadow=1;gradientColor=#ffffff;" vertex="1" parent="1">
                    <mxGeometry x="10" y="230" width="780" height="60" as="geometry"/>
                </mxCell>
                <mxCell id="50" value="" style="shape=parallelogram;perimeter=parallelogramPerimeter;whiteSpace=wrap;html=1;fixedSize=1;strokeColor=#1A1A1A;fillColor=#E6E6E6;opacity=25;rounded=1;shadow=1;gradientColor=#ffffff;" vertex="1" parent="1">
                    <mxGeometry x="460" y="200" width="320" height="30" as="geometry"/>
                </mxCell>
                <mxCell id="49" value="" style="shape=parallelogram;perimeter=parallelogramPerimeter;whiteSpace=wrap;html=1;fixedSize=1;strokeColor=#1A1A1A;fillColor=#E6E6E6;opacity=25;rounded=1;shadow=1;gradientColor=#ffffff;" vertex="1" parent="1">
                    <mxGeometry x="10" y="200" width="310" height="30" as="geometry"/>
                </mxCell>
                <mxCell id="5" value="Laptop" style="rounded=1;whiteSpace=wrap;html=1;strokeColor=#1A1A1A;" parent="1" vertex="1">
                    <mxGeometry x="320" y="210" width="120" height="60" as="geometry"/>
                </mxCell>
                <mxCell id="7" value="Phone" style="rounded=1;whiteSpace=wrap;html=1;strokeColor=#1A1A1A;" parent="1" vertex="1">
                    <mxGeometry x="720" y="140" width="52" height="60" as="geometry"/>
                </mxCell>
                <mxCell id="8" value="Monitor 1" style="rounded=1;whiteSpace=wrap;html=1;strokeColor=#1A1A1A;" parent="1" vertex="1">
                    <mxGeometry x="40" y="30" width="340" height="100" as="geometry"/>
                </mxCell>
                <mxCell id="9" value="Monitor 2" style="rounded=1;whiteSpace=wrap;html=1;strokeColor=#1A1A1A;" parent="1" vertex="1">
                    <mxGeometry x="405" y="30" width="335" height="100" as="geometry"/>
                </mxCell>
                <mxCell id="10" value="Digital NotePad" style="rounded=1;whiteSpace=wrap;html=1;strokeColor=#1A1A1A;" parent="1" vertex="1">
                    <mxGeometry x="470" y="330" width="70" height="60" as="geometry"/>
                </mxCell>
                <mxCell id="11" value="NotePad" style="rounded=1;whiteSpace=wrap;html=1;strokeColor=#1A1A1A;" parent="1" vertex="1">
                    <mxGeometry x="550" y="330" width="60" height="60" as="geometry"/>
                </mxCell>
                <mxCell id="13" value="Keyboard" style="rounded=1;whiteSpace=wrap;html=1;strokeColor=#1A1A1A;" parent="1" vertex="1">
                    <mxGeometry x="270" y="330" width="120" height="60" as="geometry"/>
                </mxCell>
                <mxCell id="14" value="Mouse" style="rounded=1;whiteSpace=wrap;html=1;strokeColor=#1A1A1A;" parent="1" vertex="1">
                    <mxGeometry x="390" y="330" width="70" height="60" as="geometry"/>
                </mxCell>
                <mxCell id="39" value="Bamboo Stuff" style="rounded=1;whiteSpace=wrap;html=1;strokeColor=#1A1A1A;" parent="1" vertex="1">
                    <mxGeometry x="40" y="290" width="120" height="20" as="geometry"/>
                </mxCell>
                <mxCell id="40" value="USB Hub" style="rounded=1;whiteSpace=wrap;html=1;strokeColor=#1A1A1A;" vertex="1" parent="1">
                    <mxGeometry x="520" y="220" width="60" height="20" as="geometry"/>
                </mxCell>
                <mxCell id="41" value="KVM" style="rounded=1;whiteSpace=wrap;html=1;strokeColor=#1A1A1A;" vertex="1" parent="1">
                    <mxGeometry x="520" y="240" width="60" height="20" as="geometry"/>
                </mxCell>
                <mxCell id="6" value="Tablet" style="rounded=1;whiteSpace=wrap;html=1;strokeColor=#1A1A1A;" parent="1" vertex="1">
                    <mxGeometry x="62" y="150" width="120" height="60" as="geometry"/>
                </mxCell>
                <mxCell id="46" value="TouchMonitor" style="rounded=1;whiteSpace=wrap;html=1;strokeColor=#1A1A1A;" vertex="1" parent="1">
                    <mxGeometry x="617" y="150" width="85" height="60" as="geometry"/>
                </mxCell>
                <mxCell id="47" value="TouchMonitor2" style="rounded=1;whiteSpace=wrap;html=1;strokeColor=#1A1A1A;" vertex="1" parent="1">
                    <mxGeometry x="517" y="150" width="85" height="60" as="geometry"/>
                </mxCell>
            </root>
        </mxGraphModel>
    </diagram>
</mxfile>
